<?xml version="1.0" standalone="no"?><!DOCTYPE svg PUBLIC "-//W3C//DTD SVG 1.1//EN" "http://www.w3.org/Graphics/SVG/1.1/DTD/svg11.dtd"><svg t="1758420905817" class="icon" viewBox="0 0 1024 1024" version="1.1" xmlns="http://www.w3.org/2000/svg" p-id="7131" xmlns:xlink="http://www.w3.org/1999/xlink" width="200" height="200"><path d="M575.936 704a64 64 0 0 1 62.08 79.488l-32 128A64 64 0 0 1 544 960H480a64 64 0 0 1-62.08-48.512l-32-128A64 64 0 0 1 448 704H576zM512 64a448 448 0 0 1 224 835.968l-32-55.424a384 384 0 1 0-384 0l-32 55.424A448 448 0 0 1 512 64z m43.456 704H468.48a16 16 0 0 0-15.552 19.84l24 96a16 16 0 0 0 15.552 12.16h38.912a16 16 0 0 0 15.488-12.16l24-96A16 16 0 0 0 555.52 768zM512 208a304 304 0 0 1 214.976 518.976l-45.248-45.248a240 240 0 1 0-339.456 0l-45.248 45.248A304 304 0 0 1 512 208zM512 384a128 128 0 1 1 0 256 128 128 0 0 1 0-256z m0 64a64 64 0 1 0 0 128 64 64 0 0 0 0-128z" p-id="7132"></path></svg>