<?xml version="1.0" standalone="no"?><!DOCTYPE svg PUBLIC "-//W3C//DTD SVG 1.1//EN" "http://www.w3.org/Graphics/SVG/1.1/DTD/svg11.dtd"><svg t="1758453297840" class="icon" viewBox="0 0 1024 1024" version="1.1" xmlns="http://www.w3.org/2000/svg" p-id="4994" xmlns:xlink="http://www.w3.org/1999/xlink" width="200" height="200"><path d="M384 112a32 32 0 0 1 0 64H176v672h672V176H640a32 32 0 0 1 0-64h240a32 32 0 0 1 32 32v736a32 32 0 0 1-32 32H144a32 32 0 0 1-32-32V144a32 32 0 0 1 32-32z m128.512 0a32 32 0 0 1 32 32l-0.064 376.576 116.864-117.12a32 32 0 0 1 40.832-3.84l4.48 3.712a32 32 0 0 1 0 45.248l-171.52 172.032a32.64 32.64 0 0 1-15.808 8.704 31.872 31.872 0 0 1-6.784 0.64l4.352-0.256a32.192 32.192 0 0 1-3.2 0.256h-1.152a32.64 32.64 0 0 1-17.344-5.12 31.936 31.936 0 0 1-5.248-4.16l3.584 3.072a32.192 32.192 0 0 1-2.816-2.368l-0.768-0.704L317.376 448.64a32 32 0 0 1 45.248-45.312l117.824 117.504V144a32 32 0 0 1 26.24-31.488z" fill="#000000" p-id="4995" data-spm-anchor-id="a313x.search_index.0.i5.45e53a81VG4co1" class="selected"></path></svg>