<?xml version="1.0" standalone="no"?><!DOCTYPE svg PUBLIC "-//W3C//DTD SVG 1.1//EN" "http://www.w3.org/Graphics/SVG/1.1/DTD/svg11.dtd"><svg t="1758525539986" class="icon" viewBox="0 0 1072 1024" version="1.1" xmlns="http://www.w3.org/2000/svg" p-id="1585" xmlns:xlink="http://www.w3.org/1999/xlink" width="209.375" height="200"><path d="M438.555383 73.065258a36.570662 36.570662 0 1 0-5.851306-72.946281C190.460009 19.62333 0 222.371082 0 469.588759c0 260.04179 210.842059 470.932609 470.932609 470.932609 260.04179 0 470.883848-210.890819 470.883848-470.932609a470.347478 470.347478 0 0 0-35.059075-178.659876 472.883044 472.883044 0 0 0-96.010179-147.355388v-0.048761a474.735958 474.735958 0 0 0-90.939047-73.775216 36.570662 36.570662 0 1 0-38.618619 62.121365c12.238982 7.606698 24.039115 15.896048 35.302879 24.770528l0.097522 0.097522a399.400394 399.400394 0 0 1 122.487338 161.886132c19.016744 46.517882 29.597856 97.521766 29.597857 150.963694a397.791284 397.791284 0 1 1-430.070989-396.47474z" fill="#000000" opacity=".7" p-id="1586"></path><path d="M274.377489 413.708787c0-90.01259 75.042999-165.10435 165.10435-165.10435 95.083722 0 165.10435 75.09176 165.104351 165.153111 0 90.110112-75.042999 165.153111-165.104351 165.153111-90.061351 0-165.10435-75.09176-165.10435-165.201872z m72.31239 0a93.620896 93.620896 0 0 0 92.79196 92.889482 93.620896 93.620896 0 0 0 92.840722-92.840721A91.865504 91.865504 0 0 0 439.481839 320.868066 93.620896 93.620896 0 0 0 346.689879 413.757548z" fill="#000000" opacity=".7" p-id="1587"></path><path d="M813.819139 751.036576a36.570662 36.570662 0 0 0-48.760883 54.465907l48.760883-54.465907z m155.986065 237.855588a36.570662 36.570662 0 0 0 48.760883-54.465906l-48.760883 54.465906z m-258.96905-438.750426a36.570662 36.570662 0 0 0-71.434694-15.798526l71.434694 15.798526z m-65.729671 57.050233l29.25653 21.942398-29.25653-21.942398z m-38.618619 37.204554l20.772136 30.085465h0.048761l-20.820897-30.085465z m-77.724848-7.850502a36.570662 36.570662 0 0 0 10.142264 72.458672l-10.142264-72.458672z m236.29524 168.95646l204.746948 183.389681 48.760883-54.465906-204.698187-183.389682-48.809644 54.465907z m-125.656796-271.159271A131.654384 131.654384 0 0 1 615.898715 585.152052l58.415537 43.982317a204.795709 204.795709 0 0 0 36.473141-79.041392l-71.385933-15.798526zM615.898715 585.152052c-8.776959 11.60509-19.016744 21.357267-30.231748 29.110247l41.641794 60.122169c17.65144-12.190221 33.547488-27.306095 47.005491-45.250099L615.898715 585.152052z m-30.182987 29.110247a132.775885 132.775885 0 0 1-56.952712 22.234963l10.142264 72.458672a205.917209 205.917209 0 0 0 88.35472-34.522705l-41.544272-60.17093z" fill="#000000" opacity=".7" p-id="1588"></path></svg>